<?xml version="1.0" encoding="utf-8"?>
<!-- Generator: Adobe Illustrator 24.2.0, SVG Export Plug-In . SVG Version: 6.00 Build 0)  -->
<svg version="1.1" id="Layer_1" xmlns="http://www.w3.org/2000/svg" xmlns:xlink="http://www.w3.org/1999/xlink" x="0px" y="0px"
	 viewBox="0 0 17.6 35.2" style="enable-background:new 0 0 17.6 35.2;" xml:space="preserve">
<style type="text/css">
	.st0{fill:#FFFFFF;}
</style>
<g id="Crisp_x5F_PR">
	<path class="st0" d="M3.3,7.4C6.5,2.8,11.9-0.1,17.5,0c0,0.4,0,0.7,0,1.1c-3.5,0.1-7.1,1.1-9.9,3.4C6.1,5.6,4.9,6.9,3.9,8.3
		c-3.4,5-3.7,12-0.8,17.3c2,3.5,5.3,6.5,9.2,7.7c1.7,0.6,3.5,0.8,5.3,0.9c0,0.3,0,0.7,0,1c-6.5,0.2-12.7-3.8-15.6-9.5
		C-1,20-0.6,12.6,3.3,7.4z"/>
	<path class="st0" d="M7.1,7.4C9.7,4.5,13.6,3,17.4,3c0,0.4,0,0.7,0,1.1c-3.4,0-6.7,1.3-9.2,3.6C5.5,10.3,3.9,14,4,17.8
		c0,3.4,1.3,6.8,3.7,9.2c2.4,2.7,6.1,4.1,9.7,4.2c0.2,0.3,0,0.7,0.1,1.1c-4.2,0-8.4-1.7-11-5C1.5,21.8,1.8,12.5,7.1,7.4z"/>
	<path class="st0" d="M10.8,8c2-1.2,4.3-2.1,6.7-2c0,0.3,0,0.7,0,1c-2.8,0.1-5.7,1.1-7.6,3.2c-2.5,2.6-3.5,6.6-2.6,10.1
		c0.7,2.7,2.4,5.2,4.9,6.4c1.6,0.9,3.5,1.4,5.4,1.4c0,0.4,0,0.7,0,1.1c-2.9,0.1-5.8-1.1-8-3c-3.2-3-4.5-7.9-3.1-12.1
		C7.2,11.7,8.6,9.4,10.8,8z"/>
	<path class="st0" d="M9.5,14c1.4-3,4.6-5.1,7.9-5.1c0,0.4,0,0.7,0,1.1c-2.3,0-4.6,1.2-6.1,3c-1.7,2.1-2.1,5.2-1,7.7
		c1.2,2.8,4.1,4.7,7.1,4.7c0,0.4,0,0.7,0,1.1c-2.7,0.1-5.4-1.2-7-3.4C8.6,20.5,8.2,16.8,9.5,14z"/>
	<path class="st0" d="M11.8,18.8c-0.8-3.4,2.1-7.1,5.7-6.9c0,0.3,0,0.7,0,1c-2.8,0-5.1,2.7-4.6,5.4c0.3,2.3,2.4,4,4.7,4
		c0,0.3,0,0.7,0,1C14.9,23.5,12.4,21.4,11.8,18.8z"/>
</g>
<g id="Layer_1_1_">
</g>
</svg>
